<svg xmlns="http://www.w3.org/2000/svg" viewBox="0 0 256 256">  
  <!-- Hill outline - sized to fit in circle -->
  <path d="M38 198 L128 58 L218 198 Z" fill="black"/>
  
  <!-- Bottom layer with sizes between 1 and 2.5 (scaled) -->
  <circle cx="48" cy="192" r="5.9" fill="#FFD700"/>
  <circle cx="65" cy="194" r="3.1" fill="#FFD700"/>
  <circle cx="82" cy="192" r="6.1" fill="#FFD700"/>
  <circle cx="100" cy="194" r="3.6" fill="#FFD700"/>
  <circle cx="114" cy="192" r="5.6" fill="#FFD700"/>
  <circle cx="128" cy="194" r="3.3" fill="#FFD700"/>
  <circle cx="142" cy="192" r="6.4" fill="#FFD700"/>
  <circle cx="156" cy="194" r="2.8" fill="#FFD700"/>
  <circle cx="174" cy="192" r="5.4" fill="#FFD700"/>
  <circle cx="190" cy="194" r="3.8" fill="#FFD700"/>
  <circle cx="208" cy="192" r="5.1" fill="#FFD700"/>
  
  <!-- Second row -->
  <circle cx="56" cy="182" r="4.1" fill="#FFD700"/>
  <circle cx="74" cy="184" r="5.9" fill="#FFD700"/>
  <circle cx="92" cy="182" r="3.6" fill="#FFD700"/>
  <circle cx="108" cy="184" r="6.1" fill="#FFD700"/>
  <circle cx="124" cy="182" r="3.1" fill="#FFD700"/>
  <circle cx="140" cy="184" r="5.6" fill="#FFD700"/>
  <circle cx="156" cy="182" r="3.8" fill="#FFD700"/>
  <circle cx="172" cy="184" r="5.1" fill="#FFD700"/>
  <circle cx="188" cy="182" r="3.3" fill="#FFD700"/>
  <circle cx="200" cy="184" r="4.6" fill="#FFD700"/>
</svg>